<?xml version="1.0" encoding="utf-8"?>
<!-- Generator: Adobe Illustrator 28.2.0, SVG Export Plug-In . SVG Version: 6.00 Build 0)  -->
<svg version="1.1" id="Layer_1" xmlns="http://www.w3.org/2000/svg" xmlns:xlink="http://www.w3.org/1999/xlink" x="0px" y="0px"
	 viewBox="0 0 175.12 78.76" style="enable-background:new 0 0 175.12 78.76;" xml:space="preserve">
<style type="text/css">
	.st0{fill:url(#SVGID_1_);}
	.st1{fill:#112B4D;}
	.st2{fill:url(#SVGID_00000152239829962300907100000006365780477442716605_);}
	.st3{fill:#154E7B;}
</style>
<g>
	<g>
		<g>
			<g>
				<linearGradient id="SVGID_1_" gradientUnits="userSpaceOnUse" x1="56.6741" y1="33.5085" x2="123.6912" y2="33.5085">
					<stop  offset="0" style="stop-color:#CEAC6B"/>
					<stop  offset="5.464630e-03" style="stop-color:#CAA767"/>
					<stop  offset="0.0804" style="stop-color:#A37943"/>
					<stop  offset="0.1537" style="stop-color:#875B2D"/>
					<stop  offset="0.2239" style="stop-color:#74471F"/>
					<stop  offset="0.2899" style="stop-color:#6A3C17"/>
					<stop  offset="0.3471" style="stop-color:#663815"/>
					<stop  offset="0.3832" style="stop-color:#6B3E18"/>
					<stop  offset="0.4337" style="stop-color:#794C22"/>
					<stop  offset="0.4927" style="stop-color:#926635"/>
					<stop  offset="0.5577" style="stop-color:#B79055"/>
					<stop  offset="0.5892" style="stop-color:#CEAC6B"/>
					<stop  offset="0.6542" style="stop-color:#E0C58E"/>
					<stop  offset="0.7258" style="stop-color:#F2E0B7"/>
					<stop  offset="0.7617" style="stop-color:#FAEBC7"/>
					<stop  offset="0.7891" style="stop-color:#F9E9C4"/>
					<stop  offset="0.8099" style="stop-color:#F4E3BB"/>
					<stop  offset="0.8287" style="stop-color:#EED9AD"/>
					<stop  offset="0.8461" style="stop-color:#E5CC98"/>
					<stop  offset="0.8625" style="stop-color:#D9BB81"/>
					<stop  offset="0.8759" style="stop-color:#CEAC6B"/>
					<stop  offset="0.9263" style="stop-color:#9B703C"/>
					<stop  offset="0.9755" style="stop-color:#74471E"/>
					<stop  offset="1" style="stop-color:#663815"/>
				</linearGradient>
				<path class="st0" d="M104.41,26.4c-7.86,0-14.23,6.37-14.23,14.23h17.92c-2.84,7.12-9.8,12.17-17.92,12.17
					c-10.79,0-19.53-8.9-19.28-19.75c0.25-10.53,9.11-18.82,19.64-18.82h10.73c7.86,0,14.23-6.37,14.23-14.23H90.69
					C72.17,0,56.77,14.82,56.67,33.34c-0.09,18.61,15.07,33.77,33.68,33.68c18.52-0.09,33.34-15.49,33.34-34.01V26.4H104.41z"/>
			</g>
		</g>
		<path class="st1" d="M121,32.43c-5.09,11.38-15.73,18.73-27.31,20.04c-0.27,0.05-0.54,0.09-0.81,0.13c-0.03,0-0.07,0.01-0.1,0.01
			c-0.24,0.03-0.47,0.06-0.71,0.08c-0.06,0.01-0.12,0.01-0.17,0.02c-0.22,0.02-0.44,0.03-0.66,0.05c-0.07,0-0.13,0.01-0.2,0.01
			c-0.28,0.01-0.56,0.02-0.84,0.02c-0.23,0-0.47-0.01-0.7-0.01c0,0,0,0,0,0c-10.46-0.37-18.83-9.12-18.58-19.73
			c0.06-2.44,0.58-4.76,1.48-6.89c-1.23-0.44-2.54-0.63-3.89-0.44c-4.42,0.6-7.53,5.13-7.68,9.59c-1.54-2.82-2.67-5.84-3.35-8.97
			l0,0c-0.25,1.11-0.44,2.24-0.57,3.38c0,0.03-0.01,0.05-0.01,0.08c-0.06,0.51-0.1,1.03-0.14,1.56c0,0.07-0.01,0.15-0.02,0.22
			c-0.03,0.59-0.05,1.18-0.06,1.78c-0.09,18.61,15.07,33.77,33.68,33.68c18.52-0.09,33.34-15.49,33.34-34.01V26.4L121,32.43z"/>
		
			<linearGradient id="SVGID_00000178164553984727395980000014184651736331555263_" gradientUnits="userSpaceOnUse" x1="56.6741" y1="33.5085" x2="115.5002" y2="33.5085">
			<stop  offset="0" style="stop-color:#663815"/>
			<stop  offset="0.0436" style="stop-color:#7C4F25"/>
			<stop  offset="0.1375" style="stop-color:#BC965A"/>
			<stop  offset="0.1584" style="stop-color:#CEAC6B"/>
			<stop  offset="0.2765" style="stop-color:#EBD6A8"/>
			<stop  offset="0.3368" style="stop-color:#FAEBC7"/>
			<stop  offset="0.3736" style="stop-color:#F0DDB2"/>
			<stop  offset="0.45" style="stop-color:#DABC82"/>
			<stop  offset="0.4883" style="stop-color:#CEAC6B"/>
			<stop  offset="0.8675" style="stop-color:#663815"/>
			<stop  offset="0.904" style="stop-color:#7C4F24"/>
			<stop  offset="0.9825" style="stop-color:#BA9459"/>
			<stop  offset="1" style="stop-color:#CCA969"/>
		</linearGradient>
		<path style="fill:url(#SVGID_00000178164553984727395980000014184651736331555263_);" d="M90.69,0
			C72.17,0,56.77,14.82,56.67,33.34c-0.09,18.61,15.07,33.77,33.68,33.68c-13.67-6.2-21.15-20.48-19.41-34.63c0,0,0,0,0,0
			c0.59-10.21,9.3-18.16,19.61-18.16h1.49c-0.1-1.77-0.65-3.54-1.84-4.83c-0.75-0.82-1.71-1.4-2.75-1.8
			c9.23-5.25,12.66-6.09,23.01-1.33l2.86,1.31c0.34-0.54,0.65-1.1,0.91-1.69c0.01-0.02,0.02-0.04,0.03-0.06
			c0.26-0.57,0.48-1.16,0.66-1.77c0.01-0.04,0.02-0.08,0.03-0.12c0.08-0.26,0.14-0.53,0.2-0.8c0.01-0.05,0.02-0.09,0.03-0.14
			c0.06-0.3,0.12-0.6,0.17-0.91c0.01-0.05,0.01-0.09,0.02-0.14c0.04-0.26,0.06-0.52,0.08-0.78c0.01-0.08,0.01-0.16,0.02-0.24
			c0.02-0.31,0.03-0.62,0.03-0.93H90.69z"/>
		<path class="st3" d="M90.69,0C72.17,0,56.77,14.82,56.67,33.34c-0.01,2.52,0.26,4.97,0.78,7.33c3.14-14.2,15.43-24.96,30.26-26.24
			c0.93-0.13,1.87-0.2,2.83-0.2h10.73c7.86,0,14.23-6.37,14.23-14.23H90.69z"/>
	</g>
	<g>
		<g>
			<path class="st1" d="M0,42.11c0.9-1.34,1.8-2.67,2.69-4.02c7.2-10.96,14.4-21.92,21.6-32.88c0.76-1.16,1.52-2.33,2.3-3.48
				c0.11-0.17,0.36-0.35,0.55-0.35c4.88-0.02,9.76-0.01,14.64-0.01c0.07,0,0.14,0.02,0.26,0.04c0,13.56,0,27.12,0,40.74
				c0.26,0,0.46,0,0.66,0c2.42,0,4.84,0,7.27,0c0.29,0,0.52-0.02,0.52,0.41c-0.01,3.68-0.01,7.35-0.01,11.03
				c0,0.07-0.02,0.13-0.03,0.25c-2.78,0-5.55,0-8.4,0c0,0.25,0,0.45,0,0.65c0,4.52-0.03,9.04,0.02,13.55
				c0.01,1.13-0.22,2.13-0.75,3.1c-2.61,4.8-6.62,7.43-12.08,7.81c-0.12,0.01-0.24,0-0.36,0c-0.05,0-0.1-0.02-0.19-0.05
				c0-8.32,0-16.64,0-24.99c-0.18-0.02-0.31-0.04-0.44-0.04c-9.35,0-18.69,0-28.04,0c-0.07,0-0.14,0.01-0.21,0.01
				C0,49.95,0,46.03,0,42.11z M28.64,19.57c-0.04-0.02-0.09-0.04-0.13-0.06c-4.83,7.51-9.66,15.02-14.54,22.59
				c4.95,0,9.81,0,14.67,0C28.64,34.56,28.64,27.06,28.64,19.57z"/>
			<path class="st1" d="M133.6,0.88c1.04,0.17,2.11,0.27,3.13,0.53c5.86,1.48,10.22,6.67,10.69,12.7c0.04,0.5,0.06,0.99,0.06,1.49
				c0.01,12.34,0.03,24.67,0.04,37.01c0,0.19,0,0.37,0,0.61c8.94,0,17.83,0,26.76,0c0,4.46,0,8.86,0,13.31c-13.71,0-27.43,0-41.2,0
				c-0.01-0.21-0.03-0.41-0.03-0.61c0-21.48,0-42.95,0-64.43c0-0.21,0.02-0.41,0.03-0.62C133.26,0.88,133.43,0.88,133.6,0.88z"/>
		</g>
	</g>
	<g>
		<path class="st1" d="M52.71,75.39h-0.92v3.45h-0.57v-3.45H50.4v-0.48h0.82v-1.07c0-0.45,0.11-0.8,0.33-1.06
			c0.22-0.26,0.55-0.39,1.01-0.39c0.07,0,0.15,0,0.24,0.01c0.08,0.01,0.16,0.02,0.24,0.05l-0.1,0.5c-0.06-0.02-0.12-0.03-0.18-0.04
			c-0.06-0.01-0.13-0.02-0.21-0.02c-0.15,0-0.28,0.03-0.37,0.08c-0.1,0.05-0.17,0.12-0.23,0.21c-0.05,0.09-0.09,0.2-0.11,0.32
			c-0.02,0.12-0.03,0.25-0.03,0.39v1.01h0.92V75.39z M54.22,73.4c0,0.12-0.04,0.21-0.13,0.29c-0.08,0.08-0.18,0.11-0.28,0.11
			c-0.1,0-0.19-0.04-0.28-0.11s-0.13-0.17-0.13-0.29c0-0.12,0.04-0.21,0.13-0.29c0.08-0.08,0.18-0.11,0.28-0.11
			c0.1,0,0.19,0.04,0.28,0.11C54.17,73.19,54.22,73.28,54.22,73.4z M54.09,78.84h-0.57v-3.93h0.57V78.84z"/>
		<path class="st1" d="M56.97,74.91c0.01,0.11,0.02,0.22,0.02,0.35C57,75.39,57,75.5,57,75.58h0.02c0.11-0.23,0.29-0.42,0.55-0.56
			c0.25-0.14,0.52-0.21,0.8-0.21c0.5,0,0.87,0.15,1.12,0.44c0.25,0.3,0.37,0.69,0.37,1.17v2.41h-0.57v-2.17
			c0-0.21-0.02-0.39-0.05-0.56c-0.03-0.17-0.09-0.31-0.17-0.43c-0.08-0.12-0.19-0.21-0.33-0.28s-0.31-0.1-0.52-0.1
			c-0.15,0-0.3,0.03-0.44,0.09c-0.14,0.06-0.27,0.16-0.38,0.28c-0.11,0.13-0.2,0.29-0.27,0.48c-0.07,0.19-0.1,0.42-0.1,0.68v2.01
			h-0.57v-3.06c0-0.11,0-0.24-0.01-0.41c-0.01-0.17-0.01-0.32-0.03-0.45H56.97z"/>
		<path class="st1" d="M64.65,76.3c0-0.34-0.09-0.59-0.27-0.76c-0.18-0.17-0.44-0.25-0.78-0.25c-0.24,0-0.45,0.04-0.65,0.13
			c-0.2,0.08-0.37,0.2-0.51,0.34l-0.32-0.38c0.16-0.16,0.38-0.3,0.64-0.4c0.27-0.11,0.57-0.16,0.9-0.16c0.21,0,0.41,0.03,0.6,0.09
			c0.18,0.06,0.35,0.15,0.49,0.26c0.14,0.12,0.25,0.27,0.33,0.44c0.08,0.18,0.12,0.39,0.12,0.63v1.72c0,0.15,0.01,0.31,0.02,0.47
			c0.01,0.16,0.03,0.3,0.05,0.41h-0.51c-0.02-0.1-0.03-0.2-0.04-0.31c-0.01-0.11-0.02-0.22-0.02-0.33h-0.02
			c-0.18,0.26-0.38,0.45-0.61,0.57c-0.23,0.11-0.5,0.17-0.82,0.17c-0.15,0-0.31-0.02-0.47-0.06c-0.16-0.04-0.3-0.11-0.44-0.21
			c-0.13-0.1-0.24-0.22-0.33-0.37c-0.09-0.15-0.13-0.34-0.13-0.56c0-0.3,0.08-0.54,0.23-0.72c0.15-0.18,0.36-0.31,0.62-0.4
			c0.26-0.09,0.55-0.14,0.89-0.17c0.33-0.03,0.68-0.04,1.04-0.04V76.3z M64.48,76.88c-0.24,0-0.47,0.01-0.71,0.03
			c-0.24,0.02-0.45,0.06-0.65,0.12c-0.19,0.06-0.35,0.14-0.47,0.26c-0.12,0.11-0.18,0.26-0.18,0.44c0,0.14,0.03,0.26,0.08,0.35
			c0.05,0.1,0.12,0.17,0.21,0.23c0.09,0.06,0.19,0.1,0.3,0.13c0.11,0.03,0.22,0.04,0.33,0.04c0.2,0,0.38-0.04,0.54-0.11
			c0.16-0.07,0.29-0.17,0.39-0.29c0.11-0.12,0.19-0.26,0.24-0.42c0.06-0.16,0.08-0.32,0.08-0.5v-0.29H64.48z"/>
		<path class="st1" d="M68.01,74.91c0.01,0.11,0.02,0.22,0.02,0.35c0.01,0.13,0.01,0.24,0.01,0.32h0.02
			c0.11-0.23,0.29-0.42,0.55-0.56c0.25-0.14,0.52-0.21,0.8-0.21c0.5,0,0.87,0.15,1.12,0.44c0.25,0.3,0.37,0.69,0.37,1.17v2.41h-0.57
			v-2.17c0-0.21-0.02-0.39-0.05-0.56c-0.03-0.17-0.09-0.31-0.17-0.43c-0.08-0.12-0.19-0.21-0.33-0.28c-0.14-0.07-0.31-0.1-0.52-0.1
			c-0.15,0-0.3,0.03-0.44,0.09c-0.14,0.06-0.27,0.16-0.38,0.28c-0.11,0.13-0.2,0.29-0.27,0.48c-0.07,0.19-0.1,0.42-0.1,0.68v2.01
			H67.5v-3.06c0-0.11,0-0.24-0.01-0.41c-0.01-0.17-0.01-0.32-0.03-0.45H68.01z"/>
		<path class="st1" d="M76.04,75.81c-0.1-0.15-0.23-0.28-0.42-0.37c-0.18-0.1-0.38-0.15-0.59-0.15c-0.23,0-0.44,0.04-0.62,0.12
			c-0.18,0.08-0.34,0.19-0.47,0.34c-0.13,0.14-0.23,0.31-0.3,0.5c-0.07,0.19-0.1,0.4-0.1,0.63c0,0.22,0.03,0.43,0.1,0.62
			c0.07,0.19,0.17,0.36,0.3,0.5c0.13,0.14,0.29,0.25,0.47,0.34c0.18,0.08,0.39,0.12,0.62,0.12c0.25,0,0.46-0.05,0.64-0.14
			c0.17-0.1,0.32-0.22,0.43-0.37l0.43,0.32c-0.17,0.21-0.37,0.37-0.62,0.5c-0.24,0.12-0.54,0.18-0.88,0.18
			c-0.32,0-0.61-0.05-0.86-0.15c-0.26-0.1-0.48-0.25-0.66-0.43c-0.18-0.18-0.32-0.4-0.42-0.65c-0.1-0.25-0.15-0.53-0.15-0.82
			c0-0.3,0.05-0.57,0.15-0.82c0.1-0.25,0.24-0.47,0.42-0.65c0.18-0.18,0.4-0.33,0.66-0.43c0.26-0.1,0.55-0.15,0.86-0.15
			c0.26,0,0.53,0.06,0.8,0.17c0.27,0.11,0.49,0.28,0.66,0.51L76.04,75.81z"/>
		<path class="st1" d="M78.94,73.4c0,0.12-0.04,0.21-0.13,0.29c-0.08,0.08-0.18,0.11-0.28,0.11c-0.1,0-0.19-0.04-0.28-0.11
			c-0.08-0.08-0.13-0.17-0.13-0.29c0-0.12,0.04-0.21,0.13-0.29c0.08-0.08,0.18-0.11,0.28-0.11c0.1,0,0.19,0.04,0.28,0.11
			C78.9,73.19,78.94,73.28,78.94,73.4z M78.83,78.84h-0.57v-3.93h0.57V78.84z"/>
		<path class="st1" d="M83.66,76.3c0-0.34-0.09-0.59-0.27-0.76c-0.18-0.17-0.44-0.25-0.78-0.25c-0.24,0-0.45,0.04-0.65,0.13
			c-0.2,0.08-0.37,0.2-0.51,0.34l-0.32-0.38c0.16-0.16,0.38-0.3,0.64-0.4c0.27-0.11,0.57-0.16,0.9-0.16c0.21,0,0.41,0.03,0.6,0.09
			c0.18,0.06,0.35,0.15,0.49,0.26c0.14,0.12,0.25,0.27,0.33,0.44c0.08,0.18,0.12,0.39,0.12,0.63v1.72c0,0.15,0.01,0.31,0.02,0.47
			c0.01,0.16,0.03,0.3,0.05,0.41h-0.51c-0.02-0.1-0.03-0.2-0.04-0.31c-0.01-0.11-0.02-0.22-0.02-0.33h-0.02
			c-0.18,0.26-0.38,0.45-0.61,0.57c-0.23,0.11-0.5,0.17-0.82,0.17c-0.15,0-0.31-0.02-0.47-0.06c-0.16-0.04-0.3-0.11-0.44-0.21
			c-0.13-0.1-0.24-0.22-0.33-0.37c-0.09-0.15-0.13-0.34-0.13-0.56c0-0.3,0.08-0.54,0.23-0.72c0.15-0.18,0.36-0.31,0.62-0.4
			c0.26-0.09,0.55-0.14,0.89-0.17c0.33-0.03,0.68-0.04,1.04-0.04V76.3z M83.49,76.88c-0.24,0-0.47,0.01-0.71,0.03
			c-0.24,0.02-0.45,0.06-0.65,0.12c-0.19,0.06-0.35,0.14-0.47,0.26c-0.12,0.11-0.18,0.26-0.18,0.44c0,0.14,0.03,0.26,0.08,0.35
			c0.05,0.1,0.12,0.17,0.21,0.23c0.09,0.06,0.19,0.1,0.3,0.13c0.11,0.03,0.22,0.04,0.33,0.04c0.2,0,0.38-0.04,0.54-0.11
			c0.16-0.07,0.29-0.17,0.39-0.29c0.11-0.12,0.19-0.26,0.24-0.42c0.06-0.16,0.08-0.32,0.08-0.5v-0.29H83.49z"/>
		<path class="st1" d="M87.1,78.84h-0.57v-6.35h0.57V78.84z"/>
		<path class="st1" d="M94.49,75.84c-0.08-0.16-0.21-0.3-0.38-0.4c-0.17-0.1-0.37-0.16-0.58-0.16c-0.1,0-0.2,0.01-0.3,0.03
			c-0.1,0.02-0.19,0.06-0.27,0.11c-0.08,0.05-0.14,0.11-0.19,0.19c-0.05,0.08-0.07,0.17-0.07,0.28c0,0.18,0.08,0.33,0.23,0.42
			c0.15,0.1,0.39,0.18,0.71,0.25c0.47,0.1,0.81,0.23,1.03,0.42s0.33,0.43,0.33,0.73c0,0.22-0.04,0.41-0.13,0.57
			c-0.09,0.15-0.2,0.28-0.34,0.38c-0.14,0.1-0.3,0.17-0.47,0.21c-0.18,0.04-0.35,0.06-0.53,0.06c-0.3,0-0.58-0.06-0.87-0.18
			c-0.28-0.12-0.51-0.32-0.69-0.58l0.45-0.34c0.1,0.17,0.25,0.32,0.44,0.44c0.2,0.12,0.41,0.18,0.65,0.18
			c0.12,0,0.24-0.01,0.35-0.03c0.11-0.02,0.21-0.06,0.29-0.12c0.08-0.06,0.15-0.13,0.2-0.21s0.08-0.19,0.08-0.32
			c0-0.21-0.1-0.36-0.3-0.47c-0.2-0.1-0.49-0.2-0.86-0.29c-0.12-0.03-0.24-0.06-0.37-0.11c-0.13-0.04-0.25-0.1-0.37-0.18
			c-0.11-0.08-0.2-0.18-0.28-0.31c-0.07-0.12-0.11-0.28-0.11-0.46c0-0.2,0.04-0.37,0.12-0.52s0.18-0.26,0.32-0.35
			c0.13-0.09,0.28-0.16,0.45-0.21c0.17-0.04,0.34-0.07,0.52-0.07c0.27,0,0.54,0.06,0.8,0.18c0.26,0.12,0.45,0.3,0.58,0.52
			L94.49,75.84z"/>
		<path class="st1" d="M100.87,76.88c0,0.3-0.05,0.57-0.16,0.82c-0.1,0.25-0.25,0.47-0.43,0.65c-0.18,0.18-0.41,0.33-0.66,0.43
			c-0.26,0.1-0.54,0.15-0.85,0.15c-0.3,0-0.58-0.05-0.84-0.15c-0.26-0.1-0.48-0.25-0.66-0.43c-0.18-0.18-0.33-0.4-0.43-0.65
			c-0.1-0.25-0.16-0.53-0.16-0.82c0-0.3,0.05-0.57,0.16-0.82c0.1-0.25,0.25-0.47,0.43-0.65c0.18-0.18,0.41-0.33,0.66-0.43
			c0.26-0.1,0.54-0.15,0.84-0.15c0.31,0,0.59,0.05,0.85,0.15c0.26,0.1,0.48,0.25,0.66,0.43c0.18,0.18,0.33,0.4,0.43,0.65
			C100.82,76.31,100.87,76.58,100.87,76.88z M100.27,76.88c0-0.22-0.04-0.42-0.11-0.62c-0.07-0.19-0.17-0.36-0.3-0.5
			s-0.29-0.26-0.47-0.34c-0.18-0.08-0.39-0.13-0.62-0.13c-0.23,0-0.44,0.04-0.62,0.13c-0.18,0.08-0.34,0.2-0.47,0.34
			c-0.13,0.14-0.23,0.31-0.3,0.5c-0.07,0.19-0.11,0.4-0.11,0.62c0,0.22,0.04,0.42,0.11,0.62s0.17,0.36,0.3,0.5
			c0.13,0.14,0.28,0.25,0.47,0.34c0.18,0.08,0.39,0.12,0.62,0.12c0.23,0,0.44-0.04,0.62-0.12c0.18-0.08,0.34-0.19,0.47-0.34
			s0.23-0.31,0.3-0.5C100.23,77.3,100.27,77.09,100.27,76.88z"/>
		<path class="st1" d="M104.6,75.39h-0.92v3.45h-0.57v-3.45h-0.82v-0.48h0.82v-1.07c0-0.45,0.11-0.8,0.33-1.06s0.55-0.39,1.01-0.39
			c0.07,0,0.15,0,0.23,0.01c0.08,0.01,0.16,0.02,0.24,0.05l-0.1,0.5c-0.06-0.02-0.12-0.03-0.18-0.04c-0.06-0.01-0.13-0.02-0.21-0.02
			c-0.15,0-0.28,0.03-0.37,0.08c-0.1,0.05-0.17,0.12-0.23,0.21c-0.05,0.09-0.09,0.2-0.11,0.32c-0.02,0.12-0.03,0.25-0.03,0.39v1.01
			h0.92V75.39z"/>
		<path class="st1" d="M107.92,75.39h-1.11v2.29c0,0.15,0.01,0.27,0.04,0.36c0.03,0.1,0.07,0.17,0.12,0.22
			c0.05,0.05,0.12,0.09,0.19,0.11c0.07,0.02,0.15,0.03,0.23,0.03c0.08,0,0.16-0.01,0.25-0.03c0.09-0.02,0.17-0.05,0.25-0.09
			l0.03,0.5c-0.1,0.04-0.21,0.07-0.32,0.09c-0.11,0.02-0.23,0.03-0.36,0.03c-0.11,0-0.22-0.01-0.34-0.04s-0.23-0.08-0.33-0.16
			c-0.1-0.08-0.18-0.18-0.25-0.32c-0.06-0.13-0.1-0.31-0.1-0.53v-2.45h-0.81v-0.48h0.81V73.8h0.57v1.11h1.11V75.39z"/>
		<path class="st1" d="M109.73,74.91l0.95,3.19h0.02l1.06-3.19h0.55l1.07,3.19h0.02l0.94-3.19h0.6l-1.24,3.93h-0.62l-1.05-3.18
			h-0.02l-1.03,3.18h-0.62l-1.24-3.93H109.73z"/>
		<path class="st1" d="M119.23,76.3c0-0.34-0.09-0.59-0.27-0.76c-0.18-0.17-0.44-0.25-0.78-0.25c-0.24,0-0.45,0.04-0.66,0.13
			c-0.2,0.08-0.37,0.2-0.51,0.34l-0.32-0.38c0.16-0.16,0.38-0.3,0.64-0.4c0.27-0.11,0.57-0.16,0.9-0.16c0.21,0,0.41,0.03,0.6,0.09
			c0.18,0.06,0.35,0.15,0.49,0.26c0.14,0.12,0.25,0.27,0.33,0.44c0.08,0.18,0.12,0.39,0.12,0.63v1.72c0,0.15,0.01,0.31,0.02,0.47
			c0.01,0.16,0.03,0.3,0.05,0.41h-0.51c-0.02-0.1-0.03-0.2-0.04-0.31c-0.01-0.11-0.02-0.22-0.02-0.33h-0.02
			c-0.18,0.26-0.38,0.45-0.61,0.57c-0.23,0.11-0.5,0.17-0.82,0.17c-0.15,0-0.31-0.02-0.47-0.06c-0.16-0.04-0.3-0.11-0.44-0.21
			c-0.13-0.1-0.24-0.22-0.33-0.37c-0.09-0.15-0.13-0.34-0.13-0.56c0-0.3,0.08-0.54,0.23-0.72c0.15-0.18,0.36-0.31,0.62-0.4
			c0.26-0.09,0.55-0.14,0.89-0.17c0.33-0.03,0.68-0.04,1.04-0.04V76.3z M119.06,76.88c-0.23,0-0.47,0.01-0.71,0.03
			c-0.24,0.02-0.45,0.06-0.65,0.12c-0.19,0.06-0.35,0.14-0.47,0.26c-0.12,0.11-0.18,0.26-0.18,0.44c0,0.14,0.03,0.26,0.08,0.35
			c0.05,0.1,0.12,0.17,0.21,0.23c0.09,0.06,0.19,0.1,0.3,0.13c0.11,0.03,0.22,0.04,0.33,0.04c0.2,0,0.38-0.04,0.54-0.11
			c0.16-0.07,0.29-0.17,0.39-0.29c0.11-0.12,0.19-0.26,0.24-0.42c0.06-0.16,0.08-0.32,0.08-0.5v-0.29H119.06z"/>
		<path class="st1" d="M122.07,75.36c-0.01-0.17-0.01-0.32-0.02-0.45h0.55c0.01,0.11,0.02,0.22,0.03,0.35
			c0.01,0.13,0.01,0.24,0.01,0.32h0.02c0.11-0.23,0.28-0.42,0.5-0.56c0.22-0.14,0.48-0.21,0.76-0.21c0.07,0,0.14,0,0.2,0.01
			c0.06,0.01,0.12,0.02,0.18,0.03l-0.08,0.55c-0.03-0.01-0.09-0.02-0.17-0.03c-0.08-0.01-0.16-0.02-0.23-0.02
			c-0.15,0-0.3,0.03-0.44,0.08c-0.14,0.06-0.26,0.14-0.37,0.26s-0.19,0.27-0.25,0.46c-0.06,0.19-0.1,0.41-0.1,0.67v2.01h-0.57v-3.06
			C122.07,75.67,122.07,75.53,122.07,75.36z"/>
		<path class="st1" d="M129.36,76.76c0,0.04,0,0.08,0,0.13c0,0.04,0,0.09-0.01,0.14h-3.26c0.01,0.2,0.04,0.38,0.12,0.55
			c0.07,0.17,0.17,0.32,0.3,0.45c0.13,0.13,0.28,0.23,0.45,0.31c0.17,0.08,0.36,0.11,0.56,0.11c0.3,0,0.55-0.07,0.77-0.21
			c0.22-0.14,0.38-0.3,0.49-0.47l0.43,0.34c-0.24,0.3-0.49,0.51-0.78,0.64c-0.28,0.13-0.59,0.19-0.91,0.19
			c-0.29,0-0.56-0.05-0.81-0.15c-0.25-0.1-0.46-0.25-0.64-0.43c-0.18-0.18-0.32-0.4-0.42-0.65c-0.1-0.25-0.16-0.53-0.16-0.82
			c0-0.3,0.05-0.57,0.15-0.82c0.1-0.25,0.24-0.47,0.42-0.65c0.18-0.18,0.39-0.33,0.63-0.43c0.24-0.1,0.5-0.15,0.78-0.15
			c0.31,0,0.58,0.05,0.81,0.15c0.23,0.1,0.43,0.24,0.59,0.42c0.16,0.18,0.28,0.38,0.36,0.62C129.32,76.24,129.36,76.49,129.36,76.76
			z M128.78,76.57c-0.02-0.37-0.14-0.68-0.36-0.92c-0.22-0.24-0.54-0.37-0.94-0.37c-0.19,0-0.37,0.04-0.53,0.1
			c-0.16,0.07-0.3,0.17-0.43,0.29c-0.12,0.12-0.22,0.26-0.29,0.41c-0.07,0.15-0.11,0.31-0.13,0.48H128.78z"/>
		<path class="st1" d="M136.45,75.84c-0.08-0.16-0.21-0.3-0.38-0.4c-0.17-0.1-0.37-0.16-0.58-0.16c-0.1,0-0.2,0.01-0.3,0.03
			c-0.1,0.02-0.19,0.06-0.27,0.11c-0.08,0.05-0.14,0.11-0.19,0.19c-0.05,0.08-0.07,0.17-0.07,0.28c0,0.18,0.08,0.33,0.23,0.42
			c0.15,0.1,0.39,0.18,0.71,0.25c0.46,0.1,0.81,0.23,1.03,0.42c0.22,0.18,0.33,0.43,0.33,0.73c0,0.22-0.04,0.41-0.13,0.57
			c-0.09,0.15-0.2,0.28-0.34,0.38c-0.14,0.1-0.3,0.17-0.47,0.21c-0.18,0.04-0.35,0.06-0.53,0.06c-0.3,0-0.58-0.06-0.86-0.18
			c-0.28-0.12-0.51-0.32-0.69-0.58l0.45-0.34c0.1,0.17,0.25,0.32,0.44,0.44c0.2,0.12,0.41,0.18,0.65,0.18
			c0.12,0,0.24-0.01,0.35-0.03c0.11-0.02,0.21-0.06,0.29-0.12c0.08-0.06,0.15-0.13,0.2-0.21c0.05-0.09,0.08-0.19,0.08-0.32
			c0-0.21-0.1-0.36-0.3-0.47c-0.2-0.1-0.49-0.2-0.86-0.29c-0.12-0.03-0.24-0.06-0.37-0.11c-0.13-0.04-0.25-0.1-0.37-0.18
			c-0.11-0.08-0.2-0.18-0.28-0.31c-0.07-0.12-0.11-0.28-0.11-0.46c0-0.2,0.04-0.37,0.12-0.52c0.08-0.14,0.18-0.26,0.31-0.35
			c0.13-0.09,0.28-0.16,0.45-0.21c0.17-0.04,0.34-0.07,0.52-0.07c0.27,0,0.54,0.06,0.8,0.18c0.26,0.12,0.45,0.3,0.58,0.52
			L136.45,75.84z"/>
		<path class="st1" d="M142.83,76.88c0,0.3-0.05,0.57-0.16,0.82c-0.1,0.25-0.25,0.47-0.43,0.65c-0.18,0.18-0.41,0.33-0.66,0.43
			c-0.26,0.1-0.54,0.15-0.85,0.15c-0.3,0-0.58-0.05-0.84-0.15c-0.26-0.1-0.48-0.25-0.66-0.43c-0.18-0.18-0.33-0.4-0.43-0.65
			c-0.1-0.25-0.15-0.53-0.15-0.82c0-0.3,0.05-0.57,0.15-0.82c0.1-0.25,0.25-0.47,0.43-0.65c0.18-0.18,0.41-0.33,0.66-0.43
			c0.26-0.1,0.54-0.15,0.84-0.15c0.31,0,0.59,0.05,0.85,0.15c0.26,0.1,0.48,0.25,0.66,0.43c0.18,0.18,0.33,0.4,0.43,0.65
			C142.78,76.31,142.83,76.58,142.83,76.88z M142.23,76.88c0-0.22-0.04-0.42-0.11-0.62c-0.07-0.19-0.17-0.36-0.3-0.5
			c-0.13-0.14-0.29-0.26-0.47-0.34c-0.18-0.08-0.39-0.13-0.62-0.13c-0.23,0-0.44,0.04-0.62,0.13c-0.18,0.08-0.34,0.2-0.47,0.34
			c-0.13,0.14-0.23,0.31-0.3,0.5c-0.07,0.19-0.11,0.4-0.11,0.62c0,0.22,0.04,0.42,0.11,0.62c0.07,0.19,0.17,0.36,0.3,0.5
			c0.13,0.14,0.28,0.25,0.47,0.34c0.18,0.08,0.39,0.12,0.62,0.12c0.23,0,0.44-0.04,0.62-0.12c0.18-0.08,0.34-0.19,0.47-0.34
			c0.13-0.14,0.23-0.31,0.3-0.5C142.19,77.3,142.23,77.09,142.23,76.88z"/>
		<path class="st1" d="M145.48,78.84h-0.57v-6.35h0.57V78.84z"/>
		<path class="st1" d="M150.71,78.84c-0.01-0.11-0.02-0.22-0.03-0.35c-0.01-0.13-0.01-0.24-0.01-0.32h-0.02
			c-0.11,0.23-0.29,0.42-0.55,0.56c-0.25,0.14-0.52,0.21-0.8,0.21c-0.5,0-0.87-0.15-1.12-0.44c-0.25-0.3-0.37-0.69-0.37-1.18v-2.41
			h0.57v2.17c0,0.21,0.02,0.39,0.05,0.56s0.09,0.31,0.17,0.43c0.08,0.12,0.19,0.21,0.33,0.28s0.31,0.1,0.52,0.1
			c0.15,0,0.3-0.03,0.44-0.09c0.14-0.06,0.27-0.16,0.38-0.28s0.2-0.29,0.27-0.48c0.07-0.19,0.1-0.42,0.1-0.68v-2.01h0.57v3.06
			c0,0.11,0,0.24,0.01,0.41c0.01,0.17,0.01,0.32,0.03,0.45H150.71z"/>
		<path class="st1" d="M155.34,75.39h-1.11v2.29c0,0.15,0.01,0.27,0.04,0.36c0.03,0.1,0.07,0.17,0.12,0.22
			c0.05,0.05,0.12,0.09,0.19,0.11c0.07,0.02,0.15,0.03,0.23,0.03c0.08,0,0.16-0.01,0.25-0.03c0.09-0.02,0.17-0.05,0.25-0.09
			l0.02,0.5c-0.1,0.04-0.21,0.07-0.31,0.09c-0.11,0.02-0.23,0.03-0.36,0.03c-0.11,0-0.22-0.01-0.34-0.04
			c-0.12-0.03-0.23-0.08-0.33-0.16c-0.1-0.08-0.18-0.18-0.25-0.32c-0.06-0.13-0.1-0.31-0.1-0.53v-2.45h-0.81v-0.48h0.81V73.8h0.57
			v1.11h1.11V75.39z"/>
		<path class="st1" d="M157.76,73.4c0,0.12-0.04,0.21-0.13,0.29c-0.08,0.08-0.18,0.11-0.28,0.11s-0.19-0.04-0.28-0.11
			c-0.08-0.08-0.13-0.17-0.13-0.29c0-0.12,0.04-0.21,0.13-0.29c0.08-0.08,0.18-0.11,0.28-0.11s0.19,0.04,0.28,0.11
			C157.72,73.19,157.76,73.28,157.76,73.4z M157.65,78.84h-0.57v-3.93h0.57V78.84z"/>
		<path class="st1" d="M163.91,76.88c0,0.3-0.05,0.57-0.16,0.82c-0.1,0.25-0.25,0.47-0.43,0.65c-0.18,0.18-0.41,0.33-0.66,0.43
			c-0.26,0.1-0.54,0.15-0.85,0.15c-0.3,0-0.58-0.05-0.84-0.15c-0.26-0.1-0.48-0.25-0.66-0.43c-0.18-0.18-0.33-0.4-0.43-0.65
			c-0.1-0.25-0.15-0.53-0.15-0.82c0-0.3,0.05-0.57,0.15-0.82c0.1-0.25,0.25-0.47,0.43-0.65c0.18-0.18,0.41-0.33,0.66-0.43
			c0.26-0.1,0.54-0.15,0.84-0.15c0.31,0,0.59,0.05,0.85,0.15c0.26,0.1,0.48,0.25,0.66,0.43c0.18,0.18,0.33,0.4,0.43,0.65
			C163.86,76.31,163.91,76.58,163.91,76.88z M163.31,76.88c0-0.22-0.04-0.42-0.11-0.62c-0.07-0.19-0.17-0.36-0.3-0.5
			c-0.13-0.14-0.29-0.26-0.47-0.34c-0.18-0.08-0.39-0.13-0.62-0.13c-0.23,0-0.44,0.04-0.62,0.13c-0.18,0.08-0.34,0.2-0.47,0.34
			c-0.13,0.14-0.23,0.31-0.3,0.5c-0.07,0.19-0.11,0.4-0.11,0.62c0,0.22,0.04,0.42,0.11,0.62c0.07,0.19,0.17,0.36,0.3,0.5
			c0.13,0.14,0.28,0.25,0.47,0.34c0.18,0.08,0.39,0.12,0.62,0.12c0.23,0,0.44-0.04,0.62-0.12c0.18-0.08,0.34-0.19,0.47-0.34
			c0.13-0.14,0.23-0.31,0.3-0.5S163.31,77.09,163.31,76.88z"/>
		<path class="st1" d="M166.49,74.91c0.01,0.11,0.02,0.22,0.03,0.35c0.01,0.13,0.01,0.24,0.01,0.32h0.02
			c0.11-0.23,0.29-0.42,0.55-0.56c0.25-0.14,0.52-0.21,0.8-0.21c0.5,0,0.87,0.15,1.12,0.44c0.25,0.3,0.37,0.69,0.37,1.17v2.41h-0.57
			v-2.17c0-0.21-0.02-0.39-0.05-0.56c-0.03-0.17-0.09-0.31-0.17-0.43c-0.08-0.12-0.19-0.21-0.33-0.28c-0.14-0.07-0.31-0.1-0.52-0.1
			c-0.15,0-0.3,0.03-0.44,0.09c-0.14,0.06-0.27,0.16-0.38,0.28s-0.2,0.29-0.27,0.48c-0.07,0.19-0.1,0.42-0.1,0.68v2.01h-0.57v-3.06
			c0-0.11,0-0.24-0.01-0.41c-0.01-0.17-0.01-0.32-0.02-0.45H166.49z"/>
		<path class="st1" d="M173.78,75.84c-0.08-0.16-0.21-0.3-0.38-0.4c-0.17-0.1-0.37-0.16-0.58-0.16c-0.1,0-0.2,0.01-0.3,0.03
			c-0.1,0.02-0.19,0.06-0.27,0.11c-0.08,0.05-0.14,0.11-0.19,0.19c-0.05,0.08-0.07,0.17-0.07,0.28c0,0.18,0.08,0.33,0.23,0.42
			c0.15,0.1,0.39,0.18,0.71,0.25c0.46,0.1,0.81,0.23,1.03,0.42c0.22,0.18,0.33,0.43,0.33,0.73c0,0.22-0.04,0.41-0.13,0.57
			c-0.09,0.15-0.2,0.28-0.34,0.38c-0.14,0.1-0.3,0.17-0.47,0.21c-0.18,0.04-0.35,0.06-0.53,0.06c-0.3,0-0.59-0.06-0.86-0.18
			c-0.28-0.12-0.51-0.32-0.69-0.58l0.45-0.34c0.1,0.17,0.25,0.32,0.44,0.44c0.2,0.12,0.41,0.18,0.65,0.18
			c0.12,0,0.24-0.01,0.35-0.03c0.11-0.02,0.21-0.06,0.29-0.12c0.08-0.06,0.15-0.13,0.2-0.21c0.05-0.09,0.08-0.19,0.08-0.32
			c0-0.21-0.1-0.36-0.3-0.47c-0.2-0.1-0.49-0.2-0.86-0.29c-0.12-0.03-0.24-0.06-0.37-0.11c-0.13-0.04-0.25-0.1-0.37-0.18
			c-0.11-0.08-0.2-0.18-0.28-0.31c-0.07-0.12-0.11-0.28-0.11-0.46c0-0.2,0.04-0.37,0.12-0.52c0.08-0.14,0.18-0.26,0.31-0.35
			c0.13-0.09,0.28-0.16,0.45-0.21c0.17-0.04,0.34-0.07,0.52-0.07c0.27,0,0.54,0.06,0.8,0.18c0.26,0.12,0.45,0.3,0.58,0.52
			L173.78,75.84z"/>
	</g>
</g>
</svg>
